{"accessors" : [{"bufferView" : 0, "byteOffset" : 0, "componentType" : 5123, "count" : 7980, "type" : "SCALAR", "max" : [7162], "min" : [0]}, {"bufferView" : 1, "byteOffset" : 0, "componentType" : 5126, "count" : 7163, "type" : "VEC3", "max" : [55.202308654785156, 44.13346862792969, 160.69618225097656], "min" : [-69.14254760742188, -50.93968963623047, 29.99803924560547], "name" : "POSITION"}, {"bufferView" : 1, "byteOffset" : 12, "componentType" : 5126, "count" : 7163, "type" : "VEC3", "max" : [0.9934660792350769, 0.9986444115638733, 0.9979631900787354], "min" : [-0.9969671964645386, -0.9999988675117493, -0.9957341551780701], "name" : "NORMAL"}, {"bufferView" : 1, "byteOffset" : 24, "componentType" : 5126, "count" : 7163, "type" : "VEC2", "max" : [1.1689399480819702, 0.8126199841499329], "min" : [0.023760000243782997, -0.16211000084877014], "name" : "TEXCOORD_0"}, {"bufferView" : 0, "byteOffset" : 15960, "componentType" : 5123, "count" : 1146, "type" : "SCALAR", "max" : [1047], "min" : [0]}, {"bufferView" : 2, "byteOffset" : 0, "componentType" : 5126, "count" : 1048, "type" : "VEC3", "max" : [8.170069694519043, 15.57135009765625, 176.5382537841797], "min" : [-21.054420471191406, -14.13169002532959, 139.46849060058594], "name" : "POSITION"}, {"bufferView" : 2, "byteOffset" : 12, "componentType" : 5126, "count" : 1048, "type" : "VEC3", "max" : [0.9984648823738098, 0.9951117634773254, 0.9864280819892883], "min" : [-0.9517478942871094, -0.9988619089126587, -0.9833222031593323], "name" : "NORMAL"}, {"bufferView" : 2, "byteOffset" : 24, "componentType" : 5126, "count" : 1048, "type" : "VEC2", "max" : [0.967199981212616, 1.9227700233459473], "min" : [0.7764800190925598, 1.6481900215148926], "name" : "TEXCOORD_0"}, {"bufferView" : 0, "byteOffset" : 18252, "componentType" : 5123, "count" : 4536, "type" : "SCALAR", "max" : [3777], "min" : [0]}, {"bufferView" : 3, "byteOffset" : 0, "componentType" : 5126, "count" : 3778, "type" : "VEC3", "max" : [-3.408780097961426, -2.1185500621795654, 176.96197509765625], "min" : [-14.254150390625, -12.954019546508789, 166.13047790527344], "name" : "POSITION"}, {"bufferView" : 3, "byteOffset" : 12, "componentType" : 5126, "count" : 3778, "type" : "VEC3", "max" : [0.9999601244926453, 0.9985162019729614, 0.9987093210220337], "min" : [-0.9999600052833557, -0.9985132217407227, -0.9987072944641113], "name" : "NORMAL"}, {"bufferView" : 3, "byteOffset" : 24, "componentType" : 5126, "count" : 3778, "type" : "VEC2", "max" : [1.0431300401687622, 2.0431299209594727], "min" : [-0.043129999190568924, 0.9568700194358826], "name" : "TEXCOORD_0"}, {"bufferView" : 0, "byteOffset" : 27324, "componentType" : 5123, "count" : 4536, "type" : "SCALAR", "max" : [3778], "min" : [0]}, {"bufferView" : 4, "byteOffset" : 0, "componentType" : 5126, "count" : 3779, "type" : "VEC3", "max" : [-7.919620037078857, -1.6790399551391602, 176.0649871826172], "min" : [-18.762710571289062, -12.52560043334961, 165.27366638183594], "name" : "POSITION"}, {"bufferView" : 4, "byteOffset" : 12, "componentType" : 5126, "count" : 3779, "type" : "VEC3", "max" : [0.9996233582496643, 0.9997746348381042, 0.9949681162834167], "min" : [-0.9996233582496643, -0.999775230884552, -0.9949663281440735], "name" : "NORMAL"}, {"bufferView" : 4, "byteOffset" : 24, "componentType" : 5126, "count" : 3779, "type" : "VEC2", "max" : [1.0431300401687622, 2.0431299209594727], "min" : [-0.043129999190568924, 0.9568799734115601], "name" : "TEXCOORD_0"}, {"bufferView" : 0, "byteOffset" : 36396, "componentType" : 5123, "count" : 5862, "type" : "SCALAR", "max" : [5205], "min" : [0]}, {"bufferView" : 5, "byteOffset" : 0, "componentType" : 5126, "count" : 5206, "type" : "VEC3", "max" : [-0.07433000206947327, 26.61440086364746, 188.55101013183594], "min" : [-48.08647155761719, -18.536460876464844, 155.21240234375], "name" : "POSITION"}, {"bufferView" : 5, "byteOffset" : 12, "componentType" : 5126, "count" : 5206, "type" : "VEC3", "max" : [0.99996417760849, 0.9998111128807068, 0.9992308616638184], "min" : [-0.9994736313819885, -0.9883209466934204, -0.9961342215538025], "name" : "NORMAL"}, {"bufferView" : 5, "byteOffset" : 24, "componentType" : 5126, "count" : 5206, "type" : "VEC2", "max" : [0.7358400225639343, 0.7202100157737732], "min" : [0.4187000095844269, 0.14844000339508057], "name" : "TEXCOORD_0"}, {"bufferView" : 0, "byteOffset" : 48120, "componentType" : 5123, "count" : 11736, "type" : "SCALAR", "max" : [9976], "min" : [0]}, {"bufferView" : 6, "byteOffset" : 0, "componentType" : 5126, "count" : 9977, "type" : "VEC3", "max" : [37.6342887878418, 39.85036849975586, 152.7867431640625], "min" : [-41.9464111328125, -51.77582931518555, 76.83242797851562], "name" : "POSITION"}, {"bufferView" : 6, "byteOffset" : 12, "componentType" : 5126, "count" : 9977, "type" : "VEC3", "max" : [0.9997570514678955, 0.9983209371566772, 0.9988114237785339], "min" : [-0.9995114803314209, -0.999777615070343, -0.9999762177467346], "name" : "NORMAL"}, {"bufferView" : 6, "byteOffset" : 24, "componentType" : 5126, "count" : 9977, "type" : "VEC2", "max" : [0.19701999425888062, 1.991860032081604], "min" : [0.004629999864846468, 0.548829972743988], "name" : "TEXCOORD_0"}, {"bufferView" : 0, "byteOffset" : 71592, "componentType" : 5123, "count" : 9204, "type" : "SCALAR", "max" : [8285], "min" : [0]}, {"bufferView" : 7, "byteOffset" : 0, "componentType" : 5126, "count" : 8286, "type" : "VEC3", "max" : [40.143798828125, 12.265190124511719, 106.4428482055664], "min" : [-61.23405075073242, -14.097610473632812, -5.2581000328063965], "name" : "POSITION"}, {"bufferView" : 7, "byteOffset" : 12, "componentType" : 5126, "count" : 8286, "type" : "VEC3", "max" : [0.9982764720916748, 0.9999026656150818, 0.9555542469024658], "min" : [-0.9996522665023804, -0.9995235800743103, -0.9935553669929504], "name" : "NORMAL"}, {"bufferView" : 7, "byteOffset" : 24, "componentType" : 5126, "count" : 8286, "type" : "VEC2", "max" : [0.8144500255584717, 1.9966200590133667], "min" : [0.008249999955296516, 0.30614998936653137], "name" : "TEXCOORD_0"}, {"bufferView" : 0, "byteOffset" : 90000, "componentType" : 5123, "count" : 753, "type" : "SCALAR", "max" : [736], "min" : [0]}, {"bufferView" : 8, "byteOffset" : 0, "componentType" : 5126, "count" : 737, "type" : "VEC3", "max" : [4.848030090332031, 4.651500225067139, 158.7274627685547], "min" : [-9.42786979675293, -7.712910175323486, 152.42274475097656], "name" : "POSITION"}, {"bufferView" : 8, "byteOffset" : 12, "componentType" : 5126, "count" : 737, "type" : "VEC3", "max" : [0.9377281069755554, 0.9946809411048889, 0.9834383726119995], "min" : [-0.9377610087394714, -0.9948115944862366, -0.9834887385368347], "name" : "NORMAL"}, {"bufferView" : 8, "byteOffset" : 24, "componentType" : 5126, "count" : 737, "type" : "VEC2", "max" : [1.7050800323486328, 0.846310019493103], "min" : [1.6367199420928955, 0.7627000212669373], "name" : "TEXCOORD_0"}, {"bufferView" : 0, "byteOffset" : 91508, "componentType" : 5123, "count" : 7854, "type" : "SCALAR", "max" : [6900], "min" : [0]}, {"bufferView" : 9, "byteOffset" : 0, "componentType" : 5126, "count" : 6901, "type" : "VEC3", "max" : [-0.0314599983394146, 0.9812099933624268, 179.2071075439453], "min" : [-20.940460205078125, -15.653510093688965, 157.9327392578125], "name" : "POSITION"}, {"bufferView" : 9, "byteOffset" : 12, "componentType" : 5126, "count" : 6901, "type" : "VEC3", "max" : [0.9862142205238342, 0.9994012117385864, 0.9991587996482849], "min" : [-0.9816765189170837, -0.9980648756027222, -0.9942503571510315], "name" : "NORMAL"}, {"bufferView" : 9, "byteOffset" : 24, "componentType" : 5126, "count" : 6901, "type" : "VEC2", "max" : [0.9887700080871582, 1.9895600080490112], "min" : [0, 0], "name" : "TEXCOORD_0"}], "asset" : {"generator" : "Aspose.3D 23.9.0", "version" : "2.0"}, "buffers" : [{"uri" : "data:application/octet-stream;base64,", "byteLength" : 1822680}], "bufferViews" : [{"buffer" : 0, "byteOffset" : 0, "byteLength" : 107216, "target" : 34963}, {"buffer" : 0, "byteOffset" : 107220, "byteLength" : 255360, "byteStride" : 32, "target" : 34962}, {"buffer" : 0, "byteOffset" : 362584, "byteLength" : 36672, "byteStride" : 32, "target" : 34962}, {"buffer" : 0, "byteOffset" : 399260, "byteLength" : 145152, "byteStride" : 32, "target" : 34962}, {"buffer" : 0, "byteOffset" : 544416, "byteLength" : 145152, "byteStride" : 32, "target" : 34962}, {"buffer" : 0, "byteOffset" : 689572, "byteLength" : 187584, "byteStride" : 32, "target" : 34962}, {"buffer" : 0, "byteOffset" : 877160, "byteLength" : 375552, "byteStride" : 32, "target" : 34962}, {"buffer" : 0, "byteOffset" : 1252716, "byteLength" : 294528, "byteStride" : 32, "target" : 34962}, {"buffer" : 0, "byteOffset" : 1547248, "byteLength" : 24096, "byteStride" : 32, "target" : 34962}, {"buffer" : 0, "byteOffset" : 1571348, "byteLength" : 251328, "byteStride" : 32, "target" : 34962}], "images" : [{"uri" : "data:image/png;base64,"}, {"uri" : "data:image/png;base64,"}, {"uri" : "data:image/png;base64,"}, {"uri" : "data:image/png;base64,"}], "materials" : [{"name" : "5_Material151_1_0_0", "pbrMetallicRoughness" : {"baseColorFactor" : [1, 1, 1, 1], "baseColorTexture" : {"index" : 0, "texCoord" : 0}, "metallicFactor" : 1, "roughnessFactor" : 0.6}, "emissiveFactor" : [0, 0, 0], "alphaMode" : "OPAQUE", "doubleSided" : true}, {"name" : "5_Material144_1_0_0", "pbrMetallicRoughness" : {"baseColorFactor" : [1, 1, 1, 1], "baseColorTexture" : {"index" : 1, "texCoord" : 0}, "metallicFactor" : 0, "roughnessFactor" : 0.6}, "emissiveFactor" : [0, 0, 0], "alphaMode" : "OPAQUE", "doubleSided" : true}, {"name" : "5_Material149_1_0_0", "pbrMetallicRoughness" : {"baseColorFactor" : [1, 1, 1, 1], "baseColorTexture" : {"index" : 2, "texCoord" : 0}, "metallicFactor" : 0, "roughnessFactor" : 0.6}, "emissiveFactor" : [0, 0, 0], "alphaMode" : "OPAQUE", "doubleSided" : true}, {"name" : "5_Material148_1_0_0", "pbrMetallicRoughness" : {"baseColorFactor" : [1, 1, 1, 1], "baseColorTexture" : {"index" : 3, "texCoord" : 0}, "metallicFactor" : 0, "roughnessFactor" : 0.6}, "emissiveFactor" : [0, 0, 0], "alphaMode" : "OPAQUE", "doubleSided" : true}, {"name" : "5_Material147_1_0_0", "pbrMetallicRoughness" : {"baseColorFactor" : [1, 1, 1, 1], "baseColorTexture" : {"index" : 1, "texCoord" : 0}, "metallicFactor" : 1, "roughnessFactor" : 0.6}, "emissiveFactor" : [0, 0, 0], "alphaMode" : "OPAQUE", "doubleSided" : true}, {"name" : "5_Material146_1_0_0", "pbrMetallicRoughness" : {"baseColorFactor" : [1, 1, 1, 1], "baseColorTexture" : {"index" : 1, "texCoord" : 0}, "metallicFactor" : 0, "roughnessFactor" : 0.6}, "emissiveFactor" : [0, 0, 0], "alphaMode" : "OPAQUE", "doubleSided" : true}, {"name" : "5_Material145_1_0_0", "pbrMetallicRoughness" : {"baseColorFactor" : [1, 1, 1, 1], "baseColorTexture" : {"index" : 0, "texCoord" : 0}, "metallicFactor" : 0.3536585366, "roughnessFactor" : 0.6}, "emissiveFactor" : [0, 0, 0], "alphaMode" : "OPAQUE", "doubleSided" : true}, {"name" : "5_Material143_1_0_0", "pbrMetallicRoughness" : {"baseColorFactor" : [1, 1, 1, 1], "baseColorTexture" : {"index" : 1, "texCoord" : 0}, "metallicFactor" : 0, "roughnessFactor" : 0.6}, "emissiveFactor" : [0, 0, 0], "alphaMode" : "OPAQUE", "doubleSided" : true}, {"name" : "5_Material139_1_0_0", "pbrMetallicRoughness" : {"baseColorFactor" : [1, 1, 1, 1], "baseColorTexture" : {"index" : 1, "texCoord" : 0}, "metallicFactor" : 0, "roughnessFactor" : 0.6}, "emissiveFactor" : [0, 0, 0], "alphaMode" : "OPAQUE", "doubleSided" : true}], "meshes" : [{"primitives" : [{"attributes" : {"POSITION" : 1, "NORMAL" : 2, "TEXCOORD_0" : 3}, "indices" : 0, "material" : 0, "mode" : 4}]}, {"primitives" : [{"attributes" : {"POSITION" : 5, "NORMAL" : 6, "TEXCOORD_0" : 7}, "indices" : 4, "material" : 1, "mode" : 4}]}, {"primitives" : [{"attributes" : {"POSITION" : 9, "NORMAL" : 10, "TEXCOORD_0" : 11}, "indices" : 8, "material" : 2, "mode" : 4}]}, {"primitives" : [{"attributes" : {"POSITION" : 13, "NORMAL" : 14, "TEXCOORD_0" : 15}, "indices" : 12, "material" : 3, "mode" : 4}]}, {"primitives" : [{"attributes" : {"POSITION" : 17, "NORMAL" : 18, "TEXCOORD_0" : 19}, "indices" : 16, "material" : 4, "mode" : 4}]}, {"primitives" : [{"attributes" : {"POSITION" : 21, "NORMAL" : 22, "TEXCOORD_0" : 23}, "indices" : 20, "material" : 5, "mode" : 4}]}, {"primitives" : [{"attributes" : {"POSITION" : 25, "NORMAL" : 26, "TEXCOORD_0" : 27}, "indices" : 24, "material" : 6, "mode" : 4}]}, {"primitives" : [{"attributes" : {"POSITION" : 29, "NORMAL" : 30, "TEXCOORD_0" : 31}, "indices" : 28, "material" : 7, "mode" : 4}]}, {"primitives" : [{"attributes" : {"POSITION" : 33, "NORMAL" : 34, "TEXCOORD_0" : 35}, "indices" : 32, "material" : 8, "mode" : 4}]}], "nodes" : [{"mesh" : 0, "name" : "5_Material151_1_0_0_0"}, {"mesh" : 1, "name" : "5_Material151_1_0_0_1"}, {"mesh" : 2, "name" : "5_Material151_1_0_0_2"}, {"mesh" : 3, "name" : "5_Material151_1_0_0_3"}, {"mesh" : 4, "name" : "5_Material151_1_0_0_4"}, {"mesh" : 5, "name" : "5_Material151_1_0_0_5"}, {"mesh" : 6, "name" : "5_Material151_1_0_0_6"}, {"mesh" : 7, "name" : "5_Material151_1_0_0_7"}, {"mesh" : 8, "name" : "5_Material151_1_0_0_8"}, {"children" : [0, 1, 2, 3, 4, 5, 6, 7, 8], "matrix" : [0.9996900000000001, 0, 0.025050000000000006, 0, 0, 1, 0, 0, -0.025050000000000006, 0, 0.9996900000000001, 0, 0.014690000000000002, 0, -0.025650000000000006, 1], "name" : "5_Material151_1_0_0"}, {"children" : [9], "name" : "Root"}, {"children" : [10], "matrix" : [1, 0, 0, 0, 0, 2.220446049250313E-16, -1, 0, 0, 1, 2.220446049250313E-16, 0, 0, 0, 0, 1], "name" : "Sketchfab_model"}], "samplers" : [{"magFilter" : 9729, "minFilter" : 9987, "wrapS" : 10497, "wrapT" : 10497}, {"magFilter" : 9729, "minFilter" : 9987, "wrapS" : 10497, "wrapT" : 10497}, {"magFilter" : 9729, "minFilter" : 9987, "wrapS" : 10497, "wrapT" : 10497}, {"magFilter" : 9729, "minFilter" : 9987, "wrapS" : 10497, "wrapT" : 10497}], "scene" : 0, "scenes" : [{"nodes" : [11]}], "textures" : [{"sampler" : 0, "source" : 0, "name" : ""}, {"sampler" : 1, "source" : 1, "name" : ""}, {"sampler" : 2, "source" : 2, "name" : ""}, {"sampler" : 3, "source" : 3, "name" : ""}]}